<?xml version="1.0" encoding="UTF-8"?>
<!DOCTYPE svg PUBLIC "-//W3C//DTD SVG 1.1//EN" "http://www.w3.org/Graphics/SVG/1.1/DTD/svg11.dtd">
<svg xmlns="http://www.w3.org/2000/svg" version="1.1" width="1020px" height="1024px" style="shape-rendering:geometricPrecision; text-rendering:geometricPrecision; image-rendering:optimizeQuality; fill-rule:evenodd; clip-rule:evenodd" xmlns:xlink="http://www.w3.org/1999/xlink">
<g><path style="opacity:1" fill="#fefefe" d="M -0.5,-0.5 C 135.167,-0.5 270.833,-0.5 406.5,-0.5C 405.5,0.166667 404.5,0.833333 403.5,1.5C 393.511,3.99515 384.844,8.82848 377.5,16C 323.667,69.8333 269.833,123.667 216,177.5C 216.331,188.157 216.831,198.823 217.5,209.5C 208.163,210.222 198.83,211.056 189.5,212C 129.641,273.525 69.4741,334.692 9,395.5C 4.19237,401.115 1.0257,407.448 -0.5,414.5C -0.5,276.167 -0.5,137.833 -0.5,-0.5 Z"/></g>
<g><path style="opacity:1" fill="#fefdfd" d="M 422.5,-0.5 C 482.5,-0.5 542.5,-0.5 602.5,-0.5C 601.5,0.166667 600.5,0.833333 599.5,1.5C 594.049,2.59592 589.049,4.76259 584.5,8C 562.653,24.4245 540.986,41.0912 519.5,58C 513.512,61.6274 507.845,61.2941 502.5,57C 482.5,40.6667 462.5,24.3333 442.5,8C 436.107,4.26619 429.44,1.43286 422.5,-0.5 Z"/></g>
<g><path style="opacity:1" fill="#fefefe" d="M 616.5,0.5 C 616.5,0.166667 616.5,-0.166667 616.5,-0.5C 750.833,-0.5 885.167,-0.5 1019.5,-0.5C 1019.5,195.5 1019.5,391.5 1019.5,587.5C 1018.02,581.542 1015.19,576.208 1011,571.5C 995.963,555.465 981.296,539.132 967,522.5C 961.903,515.201 961.237,507.534 965,499.5C 980.75,476.34 995.75,452.674 1010,428.5C 1016.13,413.299 1014.13,399.299 1004,386.5C 948.167,330.667 892.333,274.833 836.5,219C 824.769,217.909 813.102,216.409 801.5,214.5C 800.476,203.162 799.309,191.828 798,180.5C 745.167,124.333 692.333,68.1667 639.5,12C 633.179,5.50599 625.512,1.67266 616.5,0.5 Z"/></g>
<g><path style="opacity:1" fill="#e86a60" d="M 406.5,-0.5 C 407.833,-0.5 409.167,-0.5 410.5,-0.5C 408.485,0.923808 406.152,1.59047 403.5,1.5C 404.5,0.833333 405.5,0.166667 406.5,-0.5 Z"/></g>
<g><path style="opacity:1" fill="#e56056" d="M 602.5,-0.5 C 607.167,-0.5 611.833,-0.5 616.5,-0.5C 616.5,-0.166667 616.5,0.166667 616.5,0.5C 610.797,0.374767 605.13,0.7081 599.5,1.5C 600.5,0.833333 601.5,0.166667 602.5,-0.5 Z"/></g>
<g><path style="opacity:1" fill="#db2c22" d="M 410.5,-0.5 C 414.5,-0.5 418.5,-0.5 422.5,-0.5C 429.44,1.43286 436.107,4.26619 442.5,8C 462.5,24.3333 482.5,40.6667 502.5,57C 507.845,61.2941 513.512,61.6274 519.5,58C 540.986,41.0912 562.653,24.4245 584.5,8C 589.049,4.76259 594.049,2.59592 599.5,1.5C 605.13,0.7081 610.797,0.374767 616.5,0.5C 625.512,1.67266 633.179,5.50599 639.5,12C 692.333,68.1667 745.167,124.333 798,180.5C 799.309,191.828 800.476,203.162 801.5,214.5C 813.102,216.409 824.769,217.909 836.5,219C 892.333,274.833 948.167,330.667 1004,386.5C 1014.13,399.299 1016.13,413.299 1010,428.5C 995.75,452.674 980.75,476.34 965,499.5C 961.237,507.534 961.903,515.201 967,522.5C 981.296,539.132 995.963,555.465 1011,571.5C 1015.19,576.208 1018.02,581.542 1019.5,587.5C 1019.5,591.5 1019.5,595.5 1019.5,599.5C 1017.55,607.738 1013.71,615.071 1008,621.5C 948.833,678.667 889.667,735.833 830.5,793C 829.207,793.49 827.873,793.657 826.5,793.5C 820.949,793.527 815.616,794.194 810.5,795.5C 806.833,795.5 803.167,795.5 799.5,795.5C 799.667,806.838 799.5,818.172 799,829.5C 744.533,888.455 690.533,947.788 637,1007.5C 629.111,1015.86 619.611,1021.19 608.5,1023.5C 603.833,1023.5 599.167,1023.5 594.5,1023.5C 586.535,1021.02 579.202,1017.18 572.5,1012C 554.5,996.667 536.5,981.333 518.5,966C 514.925,962.484 510.925,961.817 506.5,964C 485.167,981.333 463.833,998.667 442.5,1016C 436.999,1019.09 431.332,1021.59 425.5,1023.5C 420.833,1023.5 416.167,1023.5 411.5,1023.5C 401.56,1019.76 393.06,1013.76 386,1005.5C 330.333,945.833 274.667,886.167 219,826.5C 218.5,814.838 218.333,803.171 218.5,791.5C 204.829,791.667 191.163,791.5 177.5,791C 120.696,736.53 64.1958,681.697 8,626.5C 4.02425,620.559 1.19092,614.226 -0.5,607.5C -0.5,603.833 -0.5,600.167 -0.5,596.5C 0.71545,592.05 2.54878,587.717 5,583.5C 20.7679,558.965 35.7679,533.965 50,508.5C 51.0909,502.903 50.4242,497.57 48,492.5C 33.2864,474.788 18.953,456.788 5,438.5C 3.03532,433.429 1.20199,428.429 -0.5,423.5C -0.5,420.5 -0.5,417.5 -0.5,414.5C 1.0257,407.448 4.19237,401.115 9,395.5C 69.4741,334.692 129.641,273.525 189.5,212C 198.83,211.056 208.163,210.222 217.5,209.5C 216.831,198.823 216.331,188.157 216,177.5C 269.833,123.667 323.667,69.8333 377.5,16C 384.844,8.82848 393.511,3.99515 403.5,1.5C 406.152,1.59047 408.485,0.923808 410.5,-0.5 Z"/></g>
<g><path style="opacity:1" fill="#fbd4d0" d="M 343.5,66.5 C 338.5,73.5 332.5,79.5 325.5,84.5C 331.167,78.1667 337.167,72.1667 343.5,66.5 Z"/></g>
<g><path style="opacity:1" fill="#fefefe" d="M 325.5,84.5 C 332.5,79.5 338.5,73.5 343.5,66.5C 360.034,48.4662 377.7,31.6329 396.5,16C 409.687,8.47071 422.687,8.80404 435.5,17C 456.833,34.3333 478.167,51.6667 499.5,69C 508.895,74.0554 517.895,73.3887 526.5,67C 547.986,50.0912 569.653,33.4245 591.5,17C 607.773,7.83474 622.273,10.0014 635,23.5C 685.667,77.5 736.333,131.5 787,185.5C 788.864,198.441 790.031,211.441 790.5,224.5C 804.115,226.659 817.781,228.492 831.5,230C 886,284.5 940.5,339 995,393.5C 1002.49,404.163 1003.49,415.497 998,427.5C 982.75,450.998 967.75,474.664 953,498.5C 949.817,509.66 951.484,519.993 958,529.5C 972.63,546.465 987.63,563.132 1003,579.5C 1008.77,586.915 1009.77,594.915 1006,603.5C 1004.42,607.675 1002.08,611.341 999,614.5C 941.167,670.333 883.333,726.167 825.5,782C 812.86,783.581 800.193,784.748 787.5,785.5C 788.333,798.493 788.5,811.493 788,824.5C 734.766,882.644 681.766,940.977 629,999.5C 615.483,1012.91 600.316,1015.07 583.5,1006C 563.873,990.042 544.54,973.709 525.5,957C 517.304,950.558 508.638,949.892 499.5,955C 478.167,972.333 456.833,989.667 435.5,1007C 425.662,1013.76 415.662,1014.1 405.5,1008C 401.701,1005.2 398.201,1002.04 395,998.5C 340.333,939.833 285.667,881.167 231,822.5C 230.5,808.171 230.333,793.837 230.5,779.5C 214.163,779.667 197.83,779.5 181.5,779C 126.363,726.197 71.5292,673.03 17,619.5C 9.33937,609.571 8.67271,599.237 15,588.5C 31.3517,563.799 46.685,538.466 61,512.5C 64.0292,502.779 62.6958,493.779 57,485.5C 43.3333,468.5 29.6667,451.5 16,434.5C 10.4964,425.307 10.163,415.974 15,406.5C 74.7786,345.387 134.612,284.22 194.5,223C 206.124,221.57 217.79,220.736 229.5,220.5C 228.519,207.509 228.019,194.509 228,181.5C 260.395,148.938 292.895,116.605 325.5,84.5 Z"/></g>
<g><path style="opacity:1" fill="#efb5b2" d="M 415.5,181.5 C 415.833,245.17 415.5,308.837 414.5,372.5C 413.893,372.376 413.56,372.043 413.5,371.5C 414.167,308.167 414.833,244.833 415.5,181.5 Z"/></g>
<g><path style="opacity:1" fill="#ea928e" d="M 598.5,181.5 C 599.499,246.331 599.832,311.331 599.5,376.5C 601.167,376.5 602.833,376.5 604.5,376.5C 602.735,377.461 600.735,377.795 598.5,377.5C 598.5,312.167 598.5,246.833 598.5,181.5 Z"/></g>
<g><path style="opacity:1" fill="#da251d" d="M 604.5,376.5 C 602.833,376.5 601.167,376.5 599.5,376.5C 599.832,311.331 599.499,246.331 598.5,181.5C 537.5,181.5 476.5,181.5 415.5,181.5C 414.833,244.833 414.167,308.167 413.5,371.5C 365.478,323.311 316.978,275.645 268,228.5C 259.782,219.764 258.449,210.098 264,199.5C 311.468,149.03 359.302,98.8638 407.5,49C 416.124,44.4378 424.791,44.4378 433.5,49C 452.414,65.5742 471.081,82.5742 489.5,100C 498.78,107.497 508.78,108.497 519.5,103C 540.684,85.9054 561.684,68.5721 582.5,51C 590.686,46.2414 598.686,46.5747 606.5,52C 652.667,98.8333 698.833,145.667 745,192.5C 755.478,205.728 754.811,218.395 743,230.5C 696.264,278.733 650.097,327.4 604.5,376.5 Z"/></g>
<g><path style="opacity:1" fill="#e4625c" d="M 377.5,408.5 C 378.468,410.607 378.802,412.941 378.5,415.5C 312.833,415.5 247.167,415.5 181.5,415.5C 181.167,415.5 180.833,415.5 180.5,415.5C 245.998,414.501 311.665,414.168 377.5,414.5C 377.5,412.5 377.5,410.5 377.5,408.5 Z"/></g>
<g><path style="opacity:1" fill="#e4615b" d="M 634.5,408.5 C 634.5,410.5 634.5,412.5 634.5,414.5C 701.669,414.168 768.669,414.501 835.5,415.5C 835.167,415.5 834.833,415.5 834.5,415.5C 767.5,415.5 700.5,415.5 633.5,415.5C 633.198,412.941 633.532,410.607 634.5,408.5 Z"/></g>
<g><path style="opacity:1" fill="#fefdfd" d="M -0.5,423.5 C 1.20199,428.429 3.03532,433.429 5,438.5C 18.953,456.788 33.2864,474.788 48,492.5C 50.4242,497.57 51.0909,502.903 50,508.5C 35.7679,533.965 20.7679,558.965 5,583.5C 2.54878,587.717 0.71545,592.05 -0.5,596.5C -0.5,538.833 -0.5,481.167 -0.5,423.5 Z"/></g>
<g><path style="opacity:1" fill="#da251d" d="M 377.5,408.5 C 377.5,410.5 377.5,412.5 377.5,414.5C 311.665,414.168 245.998,414.501 180.5,415.5C 180.5,476.833 180.5,538.167 180.5,599.5C 243.5,600.167 306.5,600.833 369.5,601.5C 321.007,650.16 272.674,698.993 224.5,748C 216.994,752.219 209.327,752.552 201.5,749C 151.667,701.833 101.833,654.667 52,607.5C 44.7715,598.778 43.7715,589.445 49,579.5C 66.9429,559.551 84.9429,539.551 103,519.5C 108.95,510.101 108.95,500.767 103,491.5C 85.4279,470.684 68.0946,449.684 51,428.5C 47.4576,421.003 47.791,413.67 52,406.5C 99.1667,360 146.333,313.5 193.5,267C 204.549,258.689 215.882,258.355 227.5,266C 277.698,313.367 327.698,360.867 377.5,408.5 Z"/></g>
<g><path style="opacity:1" fill="#da251d" d="M 642.5,601.5 C 706.833,600.833 771.167,600.167 835.5,599.5C 835.5,538.167 835.5,476.833 835.5,415.5C 768.669,414.501 701.669,414.168 634.5,414.5C 634.5,412.5 634.5,410.5 634.5,408.5C 684.635,360.533 734.969,312.7 785.5,265C 798.033,258.064 809.699,259.398 820.5,269C 866.667,314.5 912.833,360 959,405.5C 964.636,413.223 964.97,421.223 960,429.5C 941.621,451.544 923.621,473.877 906,496.5C 903.511,504.604 904.511,512.27 909,519.5C 926.021,538.851 943.354,557.851 961,576.5C 969.109,589.197 967.609,600.697 956.5,611C 908.167,656.667 859.833,702.333 811.5,748C 801.374,753.491 792.041,752.491 783.5,745C 737.022,696.688 690.022,648.855 642.5,601.5 Z"/></g>
<g><path style="opacity:1" fill="#f5cac6" d="M 180.5,415.5 C 180.833,415.5 181.167,415.5 181.5,415.5C 181.5,476.5 181.5,537.5 181.5,598.5C 244.837,598.167 308.17,598.5 371.5,599.5C 371.376,600.107 371.043,600.44 370.5,600.5C 307.336,599.501 244.002,599.168 180.5,599.5C 180.5,538.167 180.5,476.833 180.5,415.5 Z"/></g>
<g><path style="opacity:1" fill="#f5cfcc" d="M 834.5,415.5 C 834.833,415.5 835.167,415.5 835.5,415.5C 835.5,476.833 835.5,538.167 835.5,599.5C 770.665,599.168 705.998,599.501 641.5,600.5C 640.957,600.44 640.624,600.107 640.5,599.5C 705.163,598.5 769.83,598.167 834.5,598.5C 834.5,537.5 834.5,476.5 834.5,415.5 Z"/></g>
<g><path style="opacity:1" fill="#dc352d" d="M 180.5,599.5 C 244.002,599.168 307.336,599.501 370.5,600.5C 370.5,601.167 370.167,601.5 369.5,601.5C 306.5,600.833 243.5,600.167 180.5,599.5 Z"/></g>
<g><path style="opacity:1" fill="#dc352d" d="M 835.5,599.5 C 771.167,600.167 706.833,600.833 642.5,601.5C 641.833,601.5 641.5,601.167 641.5,600.5C 705.998,599.501 770.665,599.168 835.5,599.5 Z"/></g>
<g><path style="opacity:1" fill="#fefefe" d="M 1019.5,599.5 C 1019.5,740.833 1019.5,882.167 1019.5,1023.5C 882.5,1023.5 745.5,1023.5 608.5,1023.5C 619.611,1021.19 629.111,1015.86 637,1007.5C 690.533,947.788 744.533,888.455 799,829.5C 799.5,818.172 799.667,806.838 799.5,795.5C 803.167,795.5 806.833,795.5 810.5,795.5C 816.069,795.624 821.402,794.957 826.5,793.5C 827.873,793.657 829.207,793.49 830.5,793C 889.667,735.833 948.833,678.667 1008,621.5C 1013.71,615.071 1017.55,607.738 1019.5,599.5 Z"/></g>
<g><path style="opacity:1" fill="#fefefe" d="M -0.5,607.5 C 1.19092,614.226 4.02425,620.559 8,626.5C 64.1958,681.697 120.696,736.53 177.5,791C 191.163,791.5 204.829,791.667 218.5,791.5C 218.333,803.171 218.5,814.838 219,826.5C 274.667,886.167 330.333,945.833 386,1005.5C 393.06,1013.76 401.56,1019.76 411.5,1023.5C 274.167,1023.5 136.833,1023.5 -0.5,1023.5C -0.5,884.833 -0.5,746.167 -0.5,607.5 Z"/></g>
<g><path style="opacity:1" fill="#da251d" d="M 599.5,630.5 C 601.288,630.215 602.955,630.548 604.5,631.5C 651.849,681.015 699.016,730.682 746,780.5C 754.312,790.807 754.645,801.474 747,812.5C 700.138,859.695 653.638,907.195 607.5,955C 599.096,961.896 590.429,962.23 581.5,956C 561.833,939.667 542.167,923.333 522.5,907C 519.968,905.235 517.301,903.735 514.5,902.5C 514.389,901.883 514.056,901.383 513.5,901C 509.642,900.19 505.976,900.357 502.5,901.5C 497.987,902.172 493.987,904.005 490.5,907C 472.133,924.369 453.466,941.369 434.5,958C 425.084,963.882 415.751,963.882 406.5,958C 358.968,908.803 311.802,859.303 265,809.5C 259.005,800.538 259.005,791.538 265,782.5C 314.728,733.271 364.562,684.271 414.5,635.5C 414.5,702.167 414.5,768.833 414.5,835.5C 475.998,836.499 537.664,836.832 599.5,836.5C 599.5,767.833 599.5,699.167 599.5,630.5 Z"/></g>
<g><path style="opacity:1" fill="#f6c0bd" d="M 826.5,793.5 C 821.402,794.957 816.069,795.624 810.5,795.5C 815.616,794.194 820.949,793.527 826.5,793.5 Z"/></g>
<g><path style="opacity:1" fill="#f7d9d7" d="M 414.5,635.5 C 415.499,701.665 415.832,767.998 415.5,834.5C 476.5,834.5 537.5,834.5 598.5,834.5C 537.336,835.499 476.002,835.832 414.5,835.5C 414.5,768.833 414.5,702.167 414.5,635.5 Z"/></g>
<g><path style="opacity:1" fill="#e5645b" d="M 599.5,630.5 C 599.5,699.167 599.5,767.833 599.5,836.5C 537.664,836.832 475.998,836.499 414.5,835.5C 476.002,835.832 537.336,835.499 598.5,834.5C 598.167,766.331 598.501,698.331 599.5,630.5 Z"/></g>
<g><path style="opacity:1" fill="#e7685d" d="M 502.5,901.5 C 505.976,900.357 509.642,900.19 513.5,901C 514.056,901.383 514.389,901.883 514.5,902.5C 510.566,901.64 506.566,901.307 502.5,901.5 Z"/></g>
<g><path style="opacity:1" fill="#fefdfd" d="M 594.5,1023.5 C 538.167,1023.5 481.833,1023.5 425.5,1023.5C 431.332,1021.59 436.999,1019.09 442.5,1016C 463.833,998.667 485.167,981.333 506.5,964C 510.925,961.817 514.925,962.484 518.5,966C 536.5,981.333 554.5,996.667 572.5,1012C 579.202,1017.18 586.535,1021.02 594.5,1023.5 Z"/></g>
</svg>
